<svg xmlns="http://www.w3.org/2000/svg" viewBox="0 0 495.367 495.367"><path d="M116.249 471.807c-43.23 0-78.406-37.049-78.406-82.593 0-45.544 35.176-82.593 78.406-82.593 17.576 0 33.634 6.351 46.727 16.689l-46.648 50.863c-.02 0-.059-.017-.078-.017-7.96 0-14.396 6.744-14.396 15.058s6.437 15.058 14.396 15.058c4.186 0 7.881-1.946 10.506-4.947h44.358l3.338-20.223h-35.213l37.861-41.287c1.122 1.48 2.407 2.824 3.435 4.395l1.641-9.935 3-18.17-3.792-10.882-2.589 2.825c-17.32-14.181-38.864-22.988-62.545-22.988-56.207 0-101.945 47.626-101.945 106.153 0 58.526 45.738 106.153 101.945 106.153 34.069 0 64.106-17.665 82.611-44.496-7.938-2.281-14.712-6.803-19.748-12.826-14.28 20.363-37.033 33.763-62.864 33.763zM314.496 94.324c26.026 0 47.163-21.113 47.163-47.163C361.659 21.111 340.523 0 314.496 0c-26.03 0-47.162 21.111-47.162 47.161s21.132 47.163 47.162 47.163z"/><path d="M379.156 283.06c-2.667 0-5.153.613-7.762.819l-9.934-58.053c-4.701 1.904-9.816 3-15.188 3h-4.838l5.114 29.852-16.709-.079c1.266-2.843 2.213-4.364 2.808-8.018 2.29-14.131-7.741-26.396-19.947-28.736l-55.281-10.674 4.188-10.21c4.483 7.604 12.482 12.57 21.468 12.57h63.198c13.884 0 25.16-11.258 25.16-25.151 0-13.894-11.276-25.15-25.16-25.15H299.96l-11.377-27.876.931-2.281c7.918-19.277-1.284-41.317-20.56-49.237-19.297-7.889-41.318 1.294-49.237 20.56a264547.849 264547.849 0 01-43.904 106.835c-4.089 9.934-3.556 20.579.515 29.674 0 0-14.694.119-14.931.129-8.058.365-14.517 6.893-14.517 15.039 0 8.375 6.795 15.167 15.168 15.167h24.391l14.455 41.513-15.719 95.352c-2.25 13.705 7.03 26.653 20.736 28.903 13.844 2.271 26.662-7.121 28.916-20.727l16.745-101.662a25.247 25.247 0 00-1.065-12.352l-15.365-44.159 33.443 6.254-10.041 14.462 6.398 18.415a40.414 40.414 0 011.719 19.87l-5.134 31.113-6.124 37.179 27.968-31.243c-3.735 11.03-6.161 22.711-6.161 35.056 0 58.526 45.739 106.153 101.945 106.153 56.188 0 101.907-47.626 101.907-106.153.001-58.527-45.719-106.154-101.906-106.154zm-29.034-3.476l1.362 7.96c-4.03 1.185-8.135 2.183-11.945 3.861l10.583-11.821zm-33.886-.76h7.422l-32.23 36.004 24.808-36.004zm62.92 192.983c-43.233 0-78.405-37.049-78.405-82.593 0-36.793 23.105-67.682 54.724-78.326l11.99 70.011c-1.58 2.419-2.705 5.174-2.705 8.314 0 8.314 6.437 15.058 14.397 15.058 7.92 0 14.378-6.744 14.378-15.058 0-5.046-2.53-9.293-6.164-12.027l-12.006-70.161c1.285-.069 2.486-.405 3.792-.405 43.212 0 78.365 37.049 78.365 82.593-.001 45.544-35.155 82.594-78.366 82.594z"/></svg>