<svg xmlns="http://www.w3.org/2000/svg" width="512" height="512"><g data-name="06-sport car"><path d="M416 228a44 44 0 1044 44 44.049 44.049 0 00-44-44zm0 64a20 20 0 1120-20 20.023 20.023 0 01-20 20zm-304-64a44 44 0 1044 44 44.049 44.049 0 00-44-44zm0 64a20 20 0 1120-20 20.023 20.023 0 01-20 20z"/><path d="M506.4 250.009C505.127 247.8 474.607 196 416 196c-56.626 0-86.215-12.689-90.065-14.46C319.378 177.257 273.36 148 240 148h-96c-32.395 0-76.725 27.588-85.268 33.107l-46.527 15.509A12 12 0 004 208v64a12 12 0 009.646 11.767l46.48 9.3A56 56 0 11160.466 300h207.068a56 56 0 1196.932 0H496a12 12 0 0012-12v-32a12.011 12.011 0 00-1.6-5.991zM240 268h-48a12 12 0 010-24h48a12 12 0 010 24zm48 0a12 12 0 1112-12 12 12 0 01-12 12zm5.367-69.267A12.006 12.006 0 01288 200h-96a12 12 0 01-3.795-.616C187.61 199.187 141.6 184 112 184H73.937c17.944-10.044 47.022-24 70.063-24h96c25.8 0 59.178 17.5 76.007 27.413zM336 268a12 12 0 1112-12 12 12 0 01-12 12z"/></g></svg>